<svg height="512" viewBox="0 0 64 64" width="512" xmlns="http://www.w3.org/2000/svg"><g id="Filled_outline" data-name="Filled outline"><path d="m8 41v-3l3-2h2l2 2v3z" fill="#aabece"/><path d="m8 33-3 2 3 3 3-2z" fill="#394d5c"/><path d="m52 55h-42a3.154 3.154 0 0 1 -3-2l-1-4h-3v-4h58l-5 4-1 3c-.241 1.447-1.533 3-3 3z" fill="#aabece"/><path d="m3 45v4h3 50l5-4z" fill="#7d8d9c"/><path d="m42 45h-33l2-4h29z" fill="#394d5c"/><path d="m44 45v-3l2-2h4l5 5z" fill="#394d5c"/><path d="m50.672 37.379h5.657v4.243h-5.657z" fill="#5a6470" transform="matrix(.707 -.707 .707 .707 -12.261 49.399)"/><path d="m37 41h-20l2-6h16z" fill="#7d8d9c"/><path d="m21 31h10v4h-10z" fill="#aabece"/><path d="m24 19h4v12h-4z" fill="#394d5c"/><path d="m28 19h-4l-2-4h8z" fill="#aabece"/><circle cx="23" cy="37" fill="#fff69a" r="2"/><circle cx="31" cy="37" fill="#fff69a" r="2"/><path d="m3 50h2.22l.831 3.316a4.137 4.137 0 0 0 3.949 2.684h42c2.037 0 3.631-1.932 3.972-3.753l.883-2.651 4.77-3.815a1 1 0 0 0 -.625-1.781h-5.586l-1-1 3.293-3.293a1 1 0 0 0 0-1.414l-.793-.793 2.793-2.793-1.414-1.414-2.793 2.793-.793-.793a1 1 0 0 0 -1.414 0l-3.707 3.707h-3.586a1 1 0 0 0 -.707.293l-2 2a1 1 0 0 0 -.293.707v2h-.382l-1.718-3.447a1 1 0 0 0 -.9-.553h-2.279l-1.772-5.316a1 1 0 0 0 -.949-.684h-3v-3a1 1 0 0 0 -1-1h-2v-6h2v-2h-2v-2.764l1.9-3.789a1 1 0 0 0 -.9-1.447h-1v-3h-2v3h-2v-5h-2v5h-1a1 1 0 0 0 -.895 1.447l1.895 3.789v2.764h-3v2h3v6h-2a1 1 0 0 0 -1 1v3h-1a1 1 0 0 0 -.949.684l-1.772 5.316h-.279v-2a1 1 0 0 0 -.293-.707l-2-2a1 1 0 0 0 -.707-.293h-1.586l-2.707-2.707a1 1 0 0 0 -1.262-.125l-3 2a1 1 0 0 0 -.152 1.539l2.707 2.707v1.586h-4v2h2v2h-2a1 1 0 0 0 -1 1v4a1 1 0 0 0 1 1zm51.051 1.684a.979.979 0 0 0 -.037.151c-.167 1.001-1.083 2.165-2.014 2.165h-42a2.149 2.149 0 0 1 -2.03-1.243l-.689-2.757h47.331zm-.051-14.27 1.586 1.586-2.586 2.586-1.586-1.586zm-9 5 1.414-1.414h3.172l3 3h-7.586zm-14-6.414a1 1 0 1 1 -1 1 1 1 0 0 1 1-1zm-2.618-20-1 2h-2.764l-1-2zm-3.382 6v-2h2v2zm2 2v6h-2v-6zm-5 8h8v2h-8zm1 4a1 1 0 1 1 -1 1 1 1 0 0 1 1-1zm-3.279 0h.463a2.966 2.966 0 0 0 -.184 1 3 3 0 0 0 6 0 2.966 2.966 0 0 0 -.184-1h2.368a2.966 2.966 0 0 0 -.184 1 3 3 0 0 0 6 0 2.966 2.966 0 0 0 -.184-1h.463l1.334 4h-17.226zm19.661 6 1 2h-29.764l1-2zm-26.8-5 1.418 1.414v1.586h-5v-1.465l2.3-1.535zm-6.012-1.845 1.3-.868 1.56 1.558-1.3.868zm.43 6.845h2.382l-1 2h-1.382zm-3 4h54.149l-2.5 2h-51.649z"/></g></svg>